<mxfile host="app.diagrams.net" agent="Mozilla/5.0 (Windows NT 10.0; Win64; x64) AppleWebKit/537.36 (KHTML, like Gecko) Chrome/130.0.0.0 Safari/537.36" version="24.8.4">
  <diagram name="Page-1" id="ixH4_KPr5hCZXWi3gBmB">
    <mxGraphModel dx="794" dy="420" grid="1" gridSize="10" guides="1" tooltips="1" connect="1" arrows="1" fold="1" page="1" pageScale="1" pageWidth="827" pageHeight="1169" math="0" shadow="0">
      <root>
        <mxCell id="0" />
        <mxCell id="1" parent="0" />
        <mxCell id="bhDMK7x0sJEzYk3q1_C0-1" value="" style="rounded=0;whiteSpace=wrap;html=1;" vertex="1" parent="1">
          <mxGeometry x="350" y="190" width="120" height="60" as="geometry" />
        </mxCell>
        <mxCell id="bhDMK7x0sJEzYk3q1_C0-2" value="" style="rounded=0;whiteSpace=wrap;html=1;fontFamily=Times New Roman;" vertex="1" parent="1">
          <mxGeometry x="350" y="40" width="450" height="680" as="geometry" />
        </mxCell>
        <mxCell id="bhDMK7x0sJEzYk3q1_C0-3" value="&lt;font style=&quot;vertical-align: inherit;&quot;&gt;&lt;font style=&quot;vertical-align: inherit;&quot;&gt;&lt;font style=&quot;vertical-align: inherit;&quot;&gt;&lt;font style=&quot;vertical-align: inherit;&quot;&gt;&lt;font style=&quot;vertical-align: inherit;&quot;&gt;&lt;font style=&quot;vertical-align: inherit;&quot;&gt;&lt;font style=&quot;vertical-align: inherit;&quot;&gt;&lt;font style=&quot;vertical-align: inherit;&quot;&gt;Gestion des utilisateurs&lt;/font&gt;&lt;/font&gt;&lt;/font&gt;&lt;/font&gt;&lt;/font&gt;&lt;/font&gt;&lt;/font&gt;&lt;/font&gt;" style="text;html=1;align=center;verticalAlign=middle;whiteSpace=wrap;rounded=0;" vertex="1" parent="1">
          <mxGeometry x="501.25" y="40" width="147.5" height="30" as="geometry" />
        </mxCell>
        <mxCell id="bhDMK7x0sJEzYk3q1_C0-5" value="&lt;font style=&quot;vertical-align: inherit;&quot;&gt;&lt;font style=&quot;vertical-align: inherit;&quot;&gt;&lt;font style=&quot;vertical-align: inherit;&quot;&gt;&lt;font style=&quot;vertical-align: inherit;&quot;&gt;Mentors&lt;/font&gt;&lt;/font&gt;&lt;/font&gt;&lt;/font&gt;" style="shape=umlActor;verticalLabelPosition=bottom;verticalAlign=top;html=1;outlineConnect=0;" vertex="1" parent="1">
          <mxGeometry x="240" y="80" width="30" height="60" as="geometry" />
        </mxCell>
        <mxCell id="bhDMK7x0sJEzYk3q1_C0-6" value="&lt;font style=&quot;vertical-align: inherit;&quot;&gt;&lt;font style=&quot;vertical-align: inherit;&quot;&gt;Admin&lt;/font&gt;&lt;/font&gt;" style="shape=umlActor;verticalLabelPosition=bottom;verticalAlign=top;html=1;outlineConnect=0;" vertex="1" parent="1">
          <mxGeometry x="240" y="520" width="30" height="60" as="geometry" />
        </mxCell>
        <mxCell id="bhDMK7x0sJEzYk3q1_C0-7" value="&lt;font style=&quot;vertical-align: inherit;&quot;&gt;&lt;font style=&quot;vertical-align: inherit;&quot;&gt;&lt;font style=&quot;vertical-align: inherit;&quot;&gt;&lt;font style=&quot;vertical-align: inherit;&quot;&gt;Consultant&lt;/font&gt;&lt;/font&gt;&lt;/font&gt;&lt;/font&gt;" style="shape=umlActor;verticalLabelPosition=bottom;verticalAlign=top;html=1;outlineConnect=0;" vertex="1" parent="1">
          <mxGeometry x="240" y="240" width="30" height="60" as="geometry" />
        </mxCell>
        <mxCell id="bhDMK7x0sJEzYk3q1_C0-14" value="&lt;font style=&quot;vertical-align: inherit;&quot;&gt;&lt;font style=&quot;vertical-align: inherit;&quot;&gt;&lt;font style=&quot;vertical-align: inherit;&quot;&gt;&lt;font style=&quot;vertical-align: inherit;&quot;&gt;consulter profil&lt;/font&gt;&lt;/font&gt;&lt;/font&gt;&lt;/font&gt;" style="ellipse;whiteSpace=wrap;html=1;" vertex="1" parent="1">
          <mxGeometry x="410" y="90" width="120" height="40" as="geometry" />
        </mxCell>
        <mxCell id="bhDMK7x0sJEzYk3q1_C0-15" value="&lt;font style=&quot;vertical-align: inherit;&quot;&gt;&lt;font style=&quot;vertical-align: inherit;&quot;&gt;&lt;font style=&quot;vertical-align: inherit;&quot;&gt;&lt;font style=&quot;vertical-align: inherit;&quot;&gt;&lt;font style=&quot;vertical-align: inherit;&quot;&gt;&lt;font style=&quot;vertical-align: inherit;&quot;&gt;modifier profil&lt;/font&gt;&lt;/font&gt;&lt;/font&gt;&lt;/font&gt;&lt;/font&gt;&lt;/font&gt;" style="ellipse;whiteSpace=wrap;html=1;" vertex="1" parent="1">
          <mxGeometry x="381.25" y="160" width="120" height="40" as="geometry" />
        </mxCell>
        <mxCell id="bhDMK7x0sJEzYk3q1_C0-16" value="&lt;font style=&quot;vertical-align: inherit;&quot;&gt;&lt;font style=&quot;vertical-align: inherit;&quot;&gt;&lt;font style=&quot;vertical-align: inherit;&quot;&gt;&lt;font style=&quot;vertical-align: inherit;&quot;&gt;&lt;font style=&quot;vertical-align: inherit;&quot;&gt;&lt;font style=&quot;vertical-align: inherit;&quot;&gt;&lt;font style=&quot;vertical-align: inherit;&quot;&gt;&lt;font style=&quot;vertical-align: inherit;&quot;&gt;s&#39;authentifier&lt;/font&gt;&lt;/font&gt;&lt;/font&gt;&lt;/font&gt;&lt;/font&gt;&lt;/font&gt;&lt;/font&gt;&lt;/font&gt;" style="ellipse;whiteSpace=wrap;html=1;" vertex="1" parent="1">
          <mxGeometry x="670" y="270" width="120" height="40" as="geometry" />
        </mxCell>
        <mxCell id="bhDMK7x0sJEzYk3q1_C0-17" value="&lt;font style=&quot;vertical-align: inherit;&quot;&gt;&lt;font style=&quot;vertical-align: inherit;&quot;&gt;&lt;font style=&quot;vertical-align: inherit;&quot;&gt;&lt;font style=&quot;vertical-align: inherit;&quot;&gt;&lt;font style=&quot;vertical-align: inherit;&quot;&gt;&lt;font style=&quot;vertical-align: inherit;&quot;&gt;&lt;font style=&quot;vertical-align: inherit;&quot;&gt;&lt;font style=&quot;vertical-align: inherit;&quot;&gt;&lt;font style=&quot;vertical-align: inherit;&quot;&gt;&lt;font style=&quot;vertical-align: inherit;&quot;&gt;&lt;font style=&quot;vertical-align: inherit;&quot;&gt;&lt;font style=&quot;vertical-align: inherit;&quot;&gt;Ajouter utilisateur&lt;/font&gt;&lt;/font&gt;&lt;/font&gt;&lt;/font&gt;&lt;/font&gt;&lt;/font&gt;&lt;/font&gt;&lt;/font&gt;&lt;/font&gt;&lt;/font&gt;&lt;/font&gt;&lt;/font&gt;" style="ellipse;whiteSpace=wrap;html=1;" vertex="1" parent="1">
          <mxGeometry x="380" y="360" width="120" height="40" as="geometry" />
        </mxCell>
        <mxCell id="bhDMK7x0sJEzYk3q1_C0-18" value="&lt;font style=&quot;vertical-align: inherit;&quot;&gt;&lt;font style=&quot;vertical-align: inherit;&quot;&gt;&lt;font style=&quot;vertical-align: inherit;&quot;&gt;&lt;font style=&quot;vertical-align: inherit;&quot;&gt;&lt;font style=&quot;vertical-align: inherit;&quot;&gt;&lt;font style=&quot;vertical-align: inherit;&quot;&gt;&lt;font style=&quot;vertical-align: inherit;&quot;&gt;&lt;font style=&quot;vertical-align: inherit;&quot;&gt;&lt;font style=&quot;vertical-align: inherit;&quot;&gt;&lt;font style=&quot;vertical-align: inherit;&quot;&gt;&lt;font style=&quot;vertical-align: inherit;&quot;&gt;&lt;font style=&quot;vertical-align: inherit;&quot;&gt;Lister les demandes d&#39;inscription&lt;/font&gt;&lt;/font&gt;&lt;/font&gt;&lt;/font&gt;&lt;/font&gt;&lt;/font&gt;&lt;/font&gt;&lt;/font&gt;&lt;/font&gt;&lt;/font&gt;&lt;/font&gt;&lt;/font&gt;" style="ellipse;whiteSpace=wrap;html=1;" vertex="1" parent="1">
          <mxGeometry x="400" y="440" width="160" height="50" as="geometry" />
        </mxCell>
        <mxCell id="bhDMK7x0sJEzYk3q1_C0-19" value="&lt;font style=&quot;vertical-align: inherit;&quot;&gt;&lt;font style=&quot;vertical-align: inherit;&quot;&gt;&lt;font style=&quot;vertical-align: inherit;&quot;&gt;&lt;font style=&quot;vertical-align: inherit;&quot;&gt;&lt;font style=&quot;vertical-align: inherit;&quot;&gt;&lt;font style=&quot;vertical-align: inherit;&quot;&gt;&lt;font style=&quot;vertical-align: inherit;&quot;&gt;&lt;font style=&quot;vertical-align: inherit;&quot;&gt;&lt;font style=&quot;vertical-align: inherit;&quot;&gt;&lt;font style=&quot;vertical-align: inherit;&quot;&gt;&lt;font style=&quot;vertical-align: inherit;&quot;&gt;&lt;font style=&quot;vertical-align: inherit;&quot;&gt;Accepter&lt;/font&gt;&lt;/font&gt;&lt;/font&gt;&lt;/font&gt;&lt;/font&gt;&lt;/font&gt;&lt;/font&gt;&lt;/font&gt;&lt;/font&gt;&lt;/font&gt;&lt;/font&gt;&lt;/font&gt;" style="ellipse;whiteSpace=wrap;html=1;" vertex="1" parent="1">
          <mxGeometry x="370" y="510" width="120" height="30" as="geometry" />
        </mxCell>
        <mxCell id="bhDMK7x0sJEzYk3q1_C0-20" value="&lt;font style=&quot;vertical-align: inherit;&quot;&gt;&lt;font style=&quot;vertical-align: inherit;&quot;&gt;&lt;font style=&quot;vertical-align: inherit;&quot;&gt;&lt;font style=&quot;vertical-align: inherit;&quot;&gt;&lt;font style=&quot;vertical-align: inherit;&quot;&gt;&lt;font style=&quot;vertical-align: inherit;&quot;&gt;&lt;font style=&quot;vertical-align: inherit;&quot;&gt;&lt;font style=&quot;vertical-align: inherit;&quot;&gt;&lt;font style=&quot;vertical-align: inherit;&quot;&gt;&lt;font style=&quot;vertical-align: inherit;&quot;&gt;&lt;font style=&quot;vertical-align: inherit;&quot;&gt;&lt;font style=&quot;vertical-align: inherit;&quot;&gt;Rejeter&lt;/font&gt;&lt;/font&gt;&lt;/font&gt;&lt;/font&gt;&lt;/font&gt;&lt;/font&gt;&lt;/font&gt;&lt;/font&gt;&lt;/font&gt;&lt;/font&gt;&lt;/font&gt;&lt;/font&gt;" style="ellipse;whiteSpace=wrap;html=1;" vertex="1" parent="1">
          <mxGeometry x="500" y="500" width="120" height="30" as="geometry" />
        </mxCell>
        <mxCell id="bhDMK7x0sJEzYk3q1_C0-21" value="" style="endArrow=none;html=1;rounded=0;entryX=0;entryY=0.5;entryDx=0;entryDy=0;exitX=0.5;exitY=0.5;exitDx=0;exitDy=0;exitPerimeter=0;" edge="1" parent="1" source="bhDMK7x0sJEzYk3q1_C0-5" target="bhDMK7x0sJEzYk3q1_C0-14">
          <mxGeometry width="50" height="50" relative="1" as="geometry">
            <mxPoint x="275" y="218" as="sourcePoint" />
            <mxPoint x="390" y="240" as="targetPoint" />
          </mxGeometry>
        </mxCell>
        <mxCell id="bhDMK7x0sJEzYk3q1_C0-22" value="" style="endArrow=open;html=1;rounded=0;endFill=0;entryX=0.5;entryY=1;entryDx=0;entryDy=0;dashed=1;" edge="1" parent="1" source="bhDMK7x0sJEzYk3q1_C0-15" target="bhDMK7x0sJEzYk3q1_C0-14">
          <mxGeometry width="50" height="50" relative="1" as="geometry">
            <mxPoint x="526.5" y="256" as="sourcePoint" />
            <mxPoint x="421.5" y="240" as="targetPoint" />
          </mxGeometry>
        </mxCell>
        <mxCell id="bhDMK7x0sJEzYk3q1_C0-23" value="&amp;lt;&amp;lt;extend&amp;gt;&amp;gt;" style="text;html=1;align=center;verticalAlign=middle;whiteSpace=wrap;rounded=0;" vertex="1" parent="1">
          <mxGeometry x="460" y="140" width="60" height="30" as="geometry" />
        </mxCell>
        <mxCell id="bhDMK7x0sJEzYk3q1_C0-24" value="" style="endArrow=open;html=1;rounded=0;endFill=0;entryX=0;entryY=0;entryDx=0;entryDy=0;dashed=1;exitX=1;exitY=0.5;exitDx=0;exitDy=0;" edge="1" parent="1" source="bhDMK7x0sJEzYk3q1_C0-14" target="bhDMK7x0sJEzYk3q1_C0-16">
          <mxGeometry width="50" height="50" relative="1" as="geometry">
            <mxPoint x="594" y="265" as="sourcePoint" />
            <mxPoint x="540" y="230" as="targetPoint" />
          </mxGeometry>
        </mxCell>
        <mxCell id="bhDMK7x0sJEzYk3q1_C0-25" value="&amp;lt;&amp;lt;include&amp;gt;&amp;gt;" style="text;html=1;align=center;verticalAlign=middle;whiteSpace=wrap;rounded=0;" vertex="1" parent="1">
          <mxGeometry x="620" y="170" width="60" height="30" as="geometry" />
        </mxCell>
        <mxCell id="bhDMK7x0sJEzYk3q1_C0-27" value="" style="endArrow=none;html=1;rounded=0;entryX=0;entryY=0.5;entryDx=0;entryDy=0;" edge="1" parent="1">
          <mxGeometry width="50" height="50" relative="1" as="geometry">
            <mxPoint x="280" y="550" as="sourcePoint" />
            <mxPoint x="380" y="380" as="targetPoint" />
          </mxGeometry>
        </mxCell>
        <mxCell id="bhDMK7x0sJEzYk3q1_C0-28" value="" style="endArrow=none;html=1;rounded=0;entryX=0;entryY=1;entryDx=0;entryDy=0;" edge="1" parent="1">
          <mxGeometry width="50" height="50" relative="1" as="geometry">
            <mxPoint x="290" y="560" as="sourcePoint" />
            <mxPoint x="404.8959235991433" y="474.14213562373106" as="targetPoint" />
          </mxGeometry>
        </mxCell>
        <mxCell id="bhDMK7x0sJEzYk3q1_C0-29" value="" style="endArrow=open;html=1;rounded=0;endFill=0;entryX=0;entryY=0.5;entryDx=0;entryDy=0;dashed=1;exitX=1;exitY=0.5;exitDx=0;exitDy=0;" edge="1" parent="1" source="bhDMK7x0sJEzYk3q1_C0-17" target="bhDMK7x0sJEzYk3q1_C0-16">
          <mxGeometry width="50" height="50" relative="1" as="geometry">
            <mxPoint x="548" y="320" as="sourcePoint" />
            <mxPoint x="690" y="396" as="targetPoint" />
          </mxGeometry>
        </mxCell>
        <mxCell id="bhDMK7x0sJEzYk3q1_C0-30" value="&amp;lt;&amp;lt;include&amp;gt;&amp;gt;" style="text;html=1;align=center;verticalAlign=middle;whiteSpace=wrap;rounded=0;" vertex="1" parent="1">
          <mxGeometry x="530" y="330" width="60" height="30" as="geometry" />
        </mxCell>
        <mxCell id="bhDMK7x0sJEzYk3q1_C0-31" value="" style="endArrow=open;html=1;rounded=0;endFill=0;dashed=1;entryX=1;entryY=1;entryDx=0;entryDy=0;" edge="1" parent="1" source="bhDMK7x0sJEzYk3q1_C0-20" target="bhDMK7x0sJEzYk3q1_C0-18">
          <mxGeometry width="50" height="50" relative="1" as="geometry">
            <mxPoint x="566" y="694" as="sourcePoint" />
            <mxPoint x="540" y="640" as="targetPoint" />
          </mxGeometry>
        </mxCell>
        <mxCell id="bhDMK7x0sJEzYk3q1_C0-32" value="" style="endArrow=open;html=1;rounded=0;endFill=0;dashed=1;entryX=0;entryY=1;entryDx=0;entryDy=0;" edge="1" parent="1" source="bhDMK7x0sJEzYk3q1_C0-19" target="bhDMK7x0sJEzYk3q1_C0-18">
          <mxGeometry width="50" height="50" relative="1" as="geometry">
            <mxPoint x="528" y="691" as="sourcePoint" />
            <mxPoint x="490" y="650" as="targetPoint" />
          </mxGeometry>
        </mxCell>
        <mxCell id="bhDMK7x0sJEzYk3q1_C0-33" value="&lt;font style=&quot;vertical-align: inherit;&quot;&gt;&lt;font style=&quot;vertical-align: inherit;&quot;&gt;&lt;font style=&quot;vertical-align: inherit;&quot;&gt;&lt;font style=&quot;vertical-align: inherit;&quot;&gt;&lt;font style=&quot;vertical-align: inherit;&quot;&gt;&lt;font style=&quot;vertical-align: inherit;&quot;&gt;&lt;font style=&quot;vertical-align: inherit;&quot;&gt;&lt;font style=&quot;vertical-align: inherit;&quot;&gt;&lt;font style=&quot;vertical-align: inherit;&quot;&gt;&lt;font style=&quot;vertical-align: inherit;&quot;&gt;&lt;font style=&quot;vertical-align: inherit;&quot;&gt;&lt;font style=&quot;vertical-align: inherit;&quot;&gt;Lister utilisateur&lt;/font&gt;&lt;/font&gt;&lt;/font&gt;&lt;/font&gt;&lt;/font&gt;&lt;/font&gt;&lt;/font&gt;&lt;/font&gt;&lt;/font&gt;&lt;/font&gt;&lt;/font&gt;&lt;/font&gt;" style="ellipse;whiteSpace=wrap;html=1;" vertex="1" parent="1">
          <mxGeometry x="540" y="550" width="170" height="40" as="geometry" />
        </mxCell>
        <mxCell id="bhDMK7x0sJEzYk3q1_C0-34" value="&lt;font style=&quot;vertical-align: inherit;&quot;&gt;&lt;font style=&quot;vertical-align: inherit;&quot;&gt;&lt;font style=&quot;vertical-align: inherit;&quot;&gt;&lt;font style=&quot;vertical-align: inherit;&quot;&gt;&lt;font style=&quot;vertical-align: inherit;&quot;&gt;&lt;font style=&quot;vertical-align: inherit;&quot;&gt;&lt;font style=&quot;vertical-align: inherit;&quot;&gt;&lt;font style=&quot;vertical-align: inherit;&quot;&gt;&lt;font style=&quot;vertical-align: inherit;&quot;&gt;&lt;font style=&quot;vertical-align: inherit;&quot;&gt;&lt;font style=&quot;vertical-align: inherit;&quot;&gt;&lt;font style=&quot;vertical-align: inherit;&quot;&gt;Modifier utilisateur&lt;/font&gt;&lt;/font&gt;&lt;/font&gt;&lt;/font&gt;&lt;/font&gt;&lt;/font&gt;&lt;/font&gt;&lt;/font&gt;&lt;/font&gt;&lt;/font&gt;&lt;/font&gt;&lt;/font&gt;" style="ellipse;whiteSpace=wrap;html=1;" vertex="1" parent="1">
          <mxGeometry x="360" y="660" width="120" height="30" as="geometry" />
        </mxCell>
        <mxCell id="bhDMK7x0sJEzYk3q1_C0-35" value="&lt;font style=&quot;vertical-align: inherit;&quot;&gt;&lt;font style=&quot;vertical-align: inherit;&quot;&gt;&lt;font style=&quot;vertical-align: inherit;&quot;&gt;&lt;font style=&quot;vertical-align: inherit;&quot;&gt;&lt;font style=&quot;vertical-align: inherit;&quot;&gt;&lt;font style=&quot;vertical-align: inherit;&quot;&gt;&lt;font style=&quot;vertical-align: inherit;&quot;&gt;&lt;font style=&quot;vertical-align: inherit;&quot;&gt;&lt;font style=&quot;vertical-align: inherit;&quot;&gt;&lt;font style=&quot;vertical-align: inherit;&quot;&gt;&lt;font style=&quot;vertical-align: inherit;&quot;&gt;&lt;font style=&quot;vertical-align: inherit;&quot;&gt;Supprimer utilisateur&lt;/font&gt;&lt;/font&gt;&lt;/font&gt;&lt;/font&gt;&lt;/font&gt;&lt;/font&gt;&lt;/font&gt;&lt;/font&gt;&lt;/font&gt;&lt;/font&gt;&lt;/font&gt;&lt;/font&gt;" style="ellipse;whiteSpace=wrap;html=1;" vertex="1" parent="1">
          <mxGeometry x="474" y="640" width="120" height="30" as="geometry" />
        </mxCell>
        <mxCell id="bhDMK7x0sJEzYk3q1_C0-36" value="&lt;font style=&quot;vertical-align: inherit;&quot;&gt;&lt;font style=&quot;vertical-align: inherit;&quot;&gt;&lt;font style=&quot;vertical-align: inherit;&quot;&gt;&lt;font style=&quot;vertical-align: inherit;&quot;&gt;&lt;font style=&quot;vertical-align: inherit;&quot;&gt;&lt;font style=&quot;vertical-align: inherit;&quot;&gt;&lt;font style=&quot;vertical-align: inherit;&quot;&gt;&lt;font style=&quot;vertical-align: inherit;&quot;&gt;&lt;font style=&quot;vertical-align: inherit;&quot;&gt;&lt;font style=&quot;vertical-align: inherit;&quot;&gt;&lt;font style=&quot;vertical-align: inherit;&quot;&gt;&lt;font style=&quot;vertical-align: inherit;&quot;&gt;Bloquer utilisateur&lt;/font&gt;&lt;/font&gt;&lt;/font&gt;&lt;/font&gt;&lt;/font&gt;&lt;/font&gt;&lt;/font&gt;&lt;/font&gt;&lt;/font&gt;&lt;/font&gt;&lt;/font&gt;&lt;/font&gt;" style="ellipse;whiteSpace=wrap;html=1;" vertex="1" parent="1">
          <mxGeometry x="545" y="680" width="120" height="30" as="geometry" />
        </mxCell>
        <mxCell id="bhDMK7x0sJEzYk3q1_C0-37" value="&lt;font style=&quot;vertical-align: inherit;&quot;&gt;&lt;font style=&quot;vertical-align: inherit;&quot;&gt;&lt;font style=&quot;vertical-align: inherit;&quot;&gt;&lt;font style=&quot;vertical-align: inherit;&quot;&gt;&lt;font style=&quot;vertical-align: inherit;&quot;&gt;&lt;font style=&quot;vertical-align: inherit;&quot;&gt;&lt;font style=&quot;vertical-align: inherit;&quot;&gt;&lt;font style=&quot;vertical-align: inherit;&quot;&gt;&lt;font style=&quot;vertical-align: inherit;&quot;&gt;&lt;font style=&quot;vertical-align: inherit;&quot;&gt;&lt;font style=&quot;vertical-align: inherit;&quot;&gt;&lt;font style=&quot;vertical-align: inherit;&quot;&gt;Débloquer utilisateur&lt;/font&gt;&lt;/font&gt;&lt;/font&gt;&lt;/font&gt;&lt;/font&gt;&lt;/font&gt;&lt;/font&gt;&lt;/font&gt;&lt;/font&gt;&lt;/font&gt;&lt;/font&gt;&lt;/font&gt;" style="ellipse;whiteSpace=wrap;html=1;" vertex="1" parent="1">
          <mxGeometry x="670" y="635" width="120" height="40" as="geometry" />
        </mxCell>
        <mxCell id="bhDMK7x0sJEzYk3q1_C0-38" value="" style="endArrow=open;html=1;rounded=0;endFill=0;entryX=0.5;entryY=1;entryDx=0;entryDy=0;dashed=1;exitX=0.659;exitY=0.033;exitDx=0;exitDy=0;exitPerimeter=0;" edge="1" parent="1" source="bhDMK7x0sJEzYk3q1_C0-33" target="bhDMK7x0sJEzYk3q1_C0-16">
          <mxGeometry width="50" height="50" relative="1" as="geometry">
            <mxPoint x="510" y="390" as="sourcePoint" />
            <mxPoint x="678" y="330" as="targetPoint" />
          </mxGeometry>
        </mxCell>
        <mxCell id="bhDMK7x0sJEzYk3q1_C0-39" value="&amp;lt;&amp;lt;include&amp;gt;&amp;gt;" style="text;html=1;align=center;verticalAlign=middle;whiteSpace=wrap;rounded=0;" vertex="1" parent="1">
          <mxGeometry x="650" y="430" width="60" height="30" as="geometry" />
        </mxCell>
        <mxCell id="bhDMK7x0sJEzYk3q1_C0-40" value="" style="endArrow=open;html=1;rounded=0;endFill=0;entryX=0;entryY=0.5;entryDx=0;entryDy=0;dashed=1;exitX=0.5;exitY=0;exitDx=0;exitDy=0;" edge="1" parent="1" source="bhDMK7x0sJEzYk3q1_C0-34" target="bhDMK7x0sJEzYk3q1_C0-33">
          <mxGeometry width="50" height="50" relative="1" as="geometry">
            <mxPoint x="421.5" y="530" as="sourcePoint" />
            <mxPoint x="414" y="490" as="targetPoint" />
          </mxGeometry>
        </mxCell>
        <mxCell id="bhDMK7x0sJEzYk3q1_C0-41" value="" style="endArrow=open;html=1;rounded=0;endFill=0;dashed=1;exitX=0.5;exitY=0;exitDx=0;exitDy=0;entryX=0;entryY=1;entryDx=0;entryDy=0;" edge="1" parent="1" source="bhDMK7x0sJEzYk3q1_C0-35" target="bhDMK7x0sJEzYk3q1_C0-33">
          <mxGeometry width="50" height="50" relative="1" as="geometry">
            <mxPoint x="520" y="530" as="sourcePoint" />
            <mxPoint x="520" y="480" as="targetPoint" />
          </mxGeometry>
        </mxCell>
        <mxCell id="bhDMK7x0sJEzYk3q1_C0-42" value="" style="endArrow=open;html=1;rounded=0;endFill=0;entryX=0.5;entryY=1;entryDx=0;entryDy=0;dashed=1;exitX=0.5;exitY=0;exitDx=0;exitDy=0;" edge="1" parent="1" source="bhDMK7x0sJEzYk3q1_C0-36" target="bhDMK7x0sJEzYk3q1_C0-33">
          <mxGeometry width="50" height="50" relative="1" as="geometry">
            <mxPoint x="610" y="502" as="sourcePoint" />
            <mxPoint x="540" y="450" as="targetPoint" />
          </mxGeometry>
        </mxCell>
        <mxCell id="bhDMK7x0sJEzYk3q1_C0-43" value="" style="endArrow=open;html=1;rounded=0;endFill=0;entryX=1;entryY=1;entryDx=0;entryDy=0;dashed=1;exitX=0.5;exitY=0;exitDx=0;exitDy=0;" edge="1" parent="1" source="bhDMK7x0sJEzYk3q1_C0-37" target="bhDMK7x0sJEzYk3q1_C0-33">
          <mxGeometry width="50" height="50" relative="1" as="geometry">
            <mxPoint x="645" y="481" as="sourcePoint" />
            <mxPoint x="540" y="450" as="targetPoint" />
          </mxGeometry>
        </mxCell>
        <mxCell id="bhDMK7x0sJEzYk3q1_C0-44" value="" style="endArrow=open;html=1;rounded=0;endFill=0;entryX=0;entryY=1;entryDx=0;entryDy=0;dashed=1;exitX=1;exitY=0;exitDx=0;exitDy=0;" edge="1" parent="1" source="bhDMK7x0sJEzYk3q1_C0-18" target="bhDMK7x0sJEzYk3q1_C0-16">
          <mxGeometry width="50" height="50" relative="1" as="geometry">
            <mxPoint x="620" y="556" as="sourcePoint" />
            <mxPoint x="633" y="320" as="targetPoint" />
          </mxGeometry>
        </mxCell>
        <mxCell id="bhDMK7x0sJEzYk3q1_C0-45" value="&amp;lt;&amp;lt;include&amp;gt;&amp;gt;" style="text;html=1;align=center;verticalAlign=middle;whiteSpace=wrap;rounded=0;" vertex="1" parent="1">
          <mxGeometry x="557.5" y="380" width="60" height="30" as="geometry" />
        </mxCell>
        <mxCell id="bhDMK7x0sJEzYk3q1_C0-46" value="" style="endArrow=none;html=1;rounded=0;entryX=0;entryY=0;entryDx=0;entryDy=0;" edge="1" parent="1" target="bhDMK7x0sJEzYk3q1_C0-33">
          <mxGeometry width="50" height="50" relative="1" as="geometry">
            <mxPoint x="280" y="570" as="sourcePoint" />
            <mxPoint x="464.9" y="563.2592468056491" as="targetPoint" />
          </mxGeometry>
        </mxCell>
        <mxCell id="bhDMK7x0sJEzYk3q1_C0-47" value="&amp;lt;&amp;lt;extend&amp;gt;&amp;gt;" style="text;html=1;align=center;verticalAlign=middle;whiteSpace=wrap;rounded=0;" vertex="1" parent="1">
          <mxGeometry x="420" y="600" width="60" height="30" as="geometry" />
        </mxCell>
        <mxCell id="bhDMK7x0sJEzYk3q1_C0-48" value="&amp;lt;&amp;lt;extend&amp;gt;&amp;gt;" style="text;html=1;align=center;verticalAlign=middle;whiteSpace=wrap;rounded=0;" vertex="1" parent="1">
          <mxGeometry x="620" y="620" width="60" height="30" as="geometry" />
        </mxCell>
        <mxCell id="bhDMK7x0sJEzYk3q1_C0-49" value="&amp;lt;&amp;lt;extend&amp;gt;&amp;gt;" style="text;html=1;align=center;verticalAlign=middle;whiteSpace=wrap;rounded=0;" vertex="1" parent="1">
          <mxGeometry x="710" y="590" width="60" height="30" as="geometry" />
        </mxCell>
        <mxCell id="bhDMK7x0sJEzYk3q1_C0-50" value="&amp;lt;&amp;lt;extend&amp;gt;&amp;gt;" style="text;html=1;align=center;verticalAlign=middle;whiteSpace=wrap;rounded=0;" vertex="1" parent="1">
          <mxGeometry x="545" y="610" width="60" height="30" as="geometry" />
        </mxCell>
        <mxCell id="bhDMK7x0sJEzYk3q1_C0-51" value="&amp;lt;&amp;lt;extend&amp;gt;&amp;gt;" style="text;html=1;align=center;verticalAlign=middle;whiteSpace=wrap;rounded=0;" vertex="1" parent="1">
          <mxGeometry x="430" y="490" width="60" height="30" as="geometry" />
        </mxCell>
        <mxCell id="bhDMK7x0sJEzYk3q1_C0-52" value="&amp;lt;&amp;lt;extend&amp;gt;&amp;gt;" style="text;html=1;align=center;verticalAlign=middle;whiteSpace=wrap;rounded=0;" vertex="1" parent="1">
          <mxGeometry x="550" y="480" width="60" height="30" as="geometry" />
        </mxCell>
        <mxCell id="bhDMK7x0sJEzYk3q1_C0-54" value="" style="endArrow=block;html=1;rounded=0;endFill=0;" edge="1" parent="1">
          <mxGeometry width="50" height="50" relative="1" as="geometry">
            <mxPoint x="260" y="230" as="sourcePoint" />
            <mxPoint x="260" y="170" as="targetPoint" />
          </mxGeometry>
        </mxCell>
        <mxCell id="bhDMK7x0sJEzYk3q1_C0-55" value="&lt;font style=&quot;vertical-align: inherit;&quot;&gt;&lt;font style=&quot;vertical-align: inherit;&quot;&gt;&lt;font style=&quot;vertical-align: inherit;&quot;&gt;&lt;font style=&quot;vertical-align: inherit;&quot;&gt;&lt;font style=&quot;vertical-align: inherit;&quot;&gt;&lt;font style=&quot;vertical-align: inherit;&quot;&gt;soumettre rapport&lt;/font&gt;&lt;/font&gt;&lt;/font&gt;&lt;/font&gt;&lt;/font&gt;&lt;/font&gt;" style="ellipse;whiteSpace=wrap;html=1;" vertex="1" parent="1">
          <mxGeometry x="381.25" y="270" width="120" height="40" as="geometry" />
        </mxCell>
        <mxCell id="bhDMK7x0sJEzYk3q1_C0-56" value="" style="endArrow=none;html=1;rounded=0;entryX=0;entryY=0.5;entryDx=0;entryDy=0;exitX=0.778;exitY=0.856;exitDx=0;exitDy=0;exitPerimeter=0;" edge="1" parent="1" source="bhDMK7x0sJEzYk3q1_C0-7">
          <mxGeometry width="50" height="50" relative="1" as="geometry">
            <mxPoint x="280" y="290" as="sourcePoint" />
            <mxPoint x="381.25" y="289.5" as="targetPoint" />
          </mxGeometry>
        </mxCell>
      </root>
    </mxGraphModel>
  </diagram>
</mxfile>
